# xmcd
# 
# Track frame offsets:
#     150
#     15002
#     30840
#     50925
#     74805
#     102045
#     126000
#     147210
#     167957
#     188052
#     203380
#     221995
#     242260
#     267210
#     299255
#     317057
# 
# Disc length: 4467
# 
# Revision: 14
# Processed by: cddbd v1.5.2PL0 Copyright (c) Steve Scherf et al.
# Submitted via: fre:ac v1.0.31
# 
DISCID=e2117110
DTITLE=New Age - Pure Moods - Vol. 3
DYEAR=2000
DGENRE=New Age
TTITLE0=Only If
TTITLE1=Porcelain
TTITLE2=Life In Mono
TTITLE3=Games Without Frontiers (Massive-Db Mix)
TTITLE4=Cristofori's Dream
TTITLE5=Land Of Anaka
TTITLE6=Dela Dela
TTITLE7=Merry Christmas, Mr. Lawrence
TTITLE8=The Velocity Of Love
TTITLE9=Ever So Lonely-Eyes-Ocean
TTITLE10=Virtue
TTITLE11=Silk Road
TTITLE12=Synaesthetic
TTITLE13=On Sacred Ground
TTITLE14=Gravity Of Love
TTITLE15=Deliver Me
EXTD=YEAR: 2000 ID3G: 98
EXTT0=
EXTT1=
EXTT2=
EXTT3=
EXTT4=
EXTT5=
EXTT6=
EXTT7=
EXTT8=
EXTT9=
EXTT10=
EXTT11=
EXTT12=
EXTT13=
EXTT14=
EXTT15=
PLAYORDER=
